<svg xmlns="http://www.w3.org/2000/svg" viewBox="0 0 132.63 188.34"><defs><style>.cls-1{fill:#fff;}.cls-2{fill:#fe38a2;}.cls-3{fill:#fe82cf;}</style></defs><title>Asset 1</title><g id="Layer_2" data-name="Layer 2"><g id="Layer_1-2" data-name="Layer 1"><polyline class="cls-1" points="26.26 81.61 19.94 65.46 2.94 41.46 8.94 6.46 23.94 19.46 32.41 33.92 43.94 60.96 77.94 60.96 86.94 56.46 94.94 46.46 106.94 22.46 121.94 6.46 127.94 16.46 127.94 45.46 108.94 74.46 112.94 105.46 127.94 125.46 119.94 152.46 93.94 177.46 45.94 177.46 28.94 168.46 17.94 159.46 2.94 142.46 7.94 106.46 12.94 91.96"/><path class="cls-2" d="M7.07,146.81H0V98.16c2.24-.76,4.52-.18,6.91-.76V84.16c2.33-.92,4.63,0,7-.76V76.78h6.71A35,35,0,0,0,20.75,70c-2.28-.69-4.46,0-6.63-.49-.63-2.06,0-4.22-.4-6.42-2.1-.85-4.38,0-6.85-.62V48.89H0v-42H6.43C7.26,4.6,6.48,2.42,7,.27A26.33,26.33,0,0,1,13.85.18V6.32c2.32,1,4.61.07,7,.72v6.3c2.34.95,4.63,0,7.08.74v6.69h7v14h6.9V48.48c2.38.73,4.64,0,7,.58V55.6H83.67V48.89h6.94V35.21c2.35-.85,4.54-.05,7-.69V20.88h6.64c1-2.34.08-4.62.77-7.1h6.71v-7h7V.2h7V6.35c2.32.93,4.6.05,6.9.67V48.86h-6.74l0,0V14.2a18.45,18.45,0,0,0-6.83,0c-.73,2.28.27,4.57-.6,6.64-2.18.45-4.35-.25-6.64.51v6.31c-2.38.7-4.67-.21-7.11.77V41.7c-2.43.39-4.59-.2-7,.55V55.63c-2.41.47-4.57-.19-6.63.45-.59,2.22.26,4.5-.54,6.59-2.2.43-4.36-.23-6.46.4-.62,2.39.24,4.84-.53,7.16-2.13-1-4.57,0-6.93-.93V63.39H56.11c-.68,2.19.21,4.31-.65,6.14L49,70.19v-7c-2.64-.74-4.91.08-7.19-.7V55.77H35.12c-.52-2.43.22-4.69-.56-7.05H27.72V28.25c-2.34-.77-4.63.11-7-.72V21H14.13c-.65-2.4.13-4.68-.61-6.91a18.68,18.68,0,0,0-6.34.17v34.4c2.4.58,4.8-.45,6.93,1v6.27H21V69.75h7V83.64H21v6.6c-2.4.89-4.72-.2-7.07.94V104.3c-2.37.6-4.55-.16-6.56.53a15,15,0,0,0-.7,5.09c0,7.84,0,15.68,0,23.52,0,4.43-.42,8.9.45,13.31Z"/><path class="cls-2" d="M125.86,48.86V62.75h-7.07v6.89h-6.62c-.63,2.4-.23,4.58-.32,7h6.53c.89,2.35,0,4.62.69,7.08h6.7V97.63h6.86v48.28c-2,1.61-4.5.53-6.79.79l0,0V105.32c-2.6-.84-5,.27-7.46-1V90.6h-6.6c-.6-2.27-.16-4.28-.11-6.34-2.46-.33-4.67-.39-6.74.8A143.79,143.79,0,0,1,104.81,70c2.38-.58,4.65.27,7-.65V55.75h6.54c.8-2.35-.14-4.63.64-6.85h6.94Z"/><path class="cls-2" d="M90.63,181.55v6.79H42.13c-.51-2.24-.12-4.55-.23-6.82H90.59Z"/><path class="cls-2" d="M125.84,146.7v13.86h-7v6.95h-6.93v6.73c-2.54.69-4.94.13-7.28.42l-.14-.1q0-6.92.05-13.84l.36-.18h13.53V146.8a2.37,2.37,0,0,1,.35-.19l7.09.12Z"/><path class="cls-2" d="M21,167.65H14.07v-7h-7V146.81l.08-.06c2.08,0,4.18-.3,6.23.22.74,2.22-.29,4.5.77,6.76H21l0,13.86Z"/><path class="cls-2" d="M41.9,181.52H28.21c-.52-2.4-.21-4.69-.21-7H41.91v7Z"/><path class="cls-2" d="M104.63,174.66v6.89h-14l0,0c.24-2.23-.32-4.55.48-6.95h13.42Z"/><path class="cls-2" d="M28,174.56H21.25c-.59-2.37-.22-4.65-.25-6.91l.05-.05c2.24.14,4.51-.34,7,.35v6.6Z"/><path class="cls-3" d="M27.91,83.64h6.82v14c-2.08.73-4.26-.07-6.61.58v13.12c-2.33,1.14-4.65.07-7,.9v13.12c-2.32.92-4.5.06-6.79.69v20.56h6.34c.69,2.53.2,4.84.38,7.11H14.15c-1.06-2.26,0-4.54-.77-6.76-2.05-.52-4.15-.19-6.23-.22-.87-4.41-.4-8.88-.45-13.31-.07-7.84,0-15.68,0-23.52a15,15,0,0,1,.7-5.09c2-.69,4.19.07,6.56-.53V91.18c2.35-1.14,4.67-.05,7.07-.94v-6.6Z"/><path class="cls-3" d="M83.58,70.23V90.44H49V70.19l6.46-.66c.86-1.83,0-4,.65-6.14H76.65V69.3C79,70.24,81.45,69.24,83.58,70.23Z"/><path class="cls-3" d="M118.78,146.61V125.83h-6.94V111.75c-2.5,0-4.62.49-7.13-.2V97.73H97.88c-.66-2.3-.35-4.4-.24-6.57,2.22-1.14,4.62-.1,6.9-.72,1-1.7-.26-3.63.42-5.38,2.07-1.19,4.28-1.13,6.74-.8,0,2.06-.49,4.07.11,6.34h6.6v13.7c2.44,1.29,4.86.18,7.46,1v41.41Z"/><path class="cls-3" d="M21,153.74h6.89v6.52c2.33.76,4.5.06,6.67.54.83,2.08-.09,4.38.62,6.63H97.92v-6.52a27.06,27.06,0,0,1,6.62-.19q0,6.92-.05,13.84H91.07c-.8,2.4-.24,4.72-.48,6.95H41.91v-7H28V168c-2.45-.69-4.72-.21-7-.35Z"/><path class="cls-3" d="M104.9,160.54c.22-2.18-.8-4.36,0-6.79h6.58c.9-2.32,0-4.6.7-6.91a29.39,29.39,0,0,1,6.29,0v13.74Z"/><path class="cls-2" d="M97.71,132.68H83.9c-.42-2.29-.13-4.54-.15-7.05H90.4c.63-2.31.3-4.39.21-6.78H83.87v-14c2.24-.46,4.49-.14,7-.17v6.5c2.32,1,4.61.06,6.85.66Z"/><path class="cls-2" d="M48.69,125.61v-6.69H42.05v-14c2.09-.55,4.26-.22,6.73-.19v6.55c2.35.89,4.52.31,6.84.65v20.66H42c-.08-2.33-.37-4.51.27-7Z"/><path class="cls-2" d="M69.74,146.72h-7l0,0v-6.92c2.32-.61,4.48-.17,6.76-.29a36.48,36.48,0,0,1,.15,7.21Z"/><path class="cls-2" d="M69.7,146.76a30.46,30.46,0,0,1,7,0v6.66a32.4,32.4,0,0,1-6.69.15c-.52-2.32-.12-4.62-.28-6.88Z"/><path class="cls-2" d="M62.75,146.72v6.72c-2.22.48-4.39.1-6.65.23-.56-2.35-.16-4.52-.3-6.91h7Z"/></g></g></svg>